<?xml version="1.0" standalone="no"?>
<!DOCTYPE svg PUBLIC "-//W3C//DTD SVG 20010904//EN"
 "http://www.w3.org/TR/2001/REC-SVG-20010904/DTD/svg10.dtd">
<svg version="1.0" xmlns="http://www.w3.org/2000/svg"
 width="300.000000pt" height="177.000000pt" viewBox="0 0 300.000000 177.000000"
 preserveAspectRatio="xMidYMid meet">
<metadata>
Created by potrace 1.16, written by Peter Selinger 2001-2019
</metadata>
<g transform="translate(0.000000,177.000000) scale(0.100000,-0.100000)"
fill="#000000" stroke="none">
<path d="M414 1338 c9 -60 46 -111 98 -137 l43 -21 -172 0 c-173 0 -173 0
-173 -23 0 -66 45 -136 105 -163 27 -12 11 -13 -137 -14 l-168 0 0 -32 c0 -43
34 -110 69 -136 31 -23 96 -41 146 -42 30 0 31 -1 42 -70 6 -43 20 -84 34
-105 30 -43 86 -75 133 -75 l36 0 0 173 0 172 19 -40 c10 -22 27 -48 37 -57
26 -23 88 -48 119 -48 l25 0 1 178 c0 148 2 172 12 146 25 -65 79 -109 146
-120 l41 -7 -2 229 -3 229 -229 3 -229 2 7 -42z"/>
<path d="M1512 1294 c-28 -20 -31 -83 -4 -107 23 -21 86 -22 106 -1 22 22 21
87 -2 107 -23 21 -71 22 -100 1z"/>
<path d="M1288 999 l-3 -271 -30 -25 c-27 -24 -34 -25 -102 -20 l-73 5 0 -52
0 -53 38 -7 c57 -9 138 -7 169 5 45 17 82 60 98 113 12 38 15 110 15 313 l0
263 -54 0 -54 0 -4 -271z"/>
<path d="M1955 1115 c-5 -2 -22 -6 -37 -9 -14 -3 -40 -18 -57 -32 l-31 -26 0
31 c0 31 -1 31 -50 31 l-50 0 0 -265 0 -265 49 0 49 0 4 178 c5 224 13 239
130 250 l59 5 -3 51 c-3 46 -5 51 -28 53 -14 1 -29 0 -35 -2z"/>
<path d="M2181 1113 c-42 -8 -114 -92 -134 -154 -38 -122 -8 -287 63 -347 82
-68 213 -68 288 1 l22 20 0 -26 c0 -26 2 -27 50 -27 l50 0 0 265 0 265 -50 0
c-50 0 -50 0 -50 -32 l0 -32 -27 26 c-16 15 -41 32 -56 37 -28 11 -109 13
-156 4z m162 -112 c40 -26 56 -52 67 -111 14 -73 -4 -146 -45 -187 -30 -30
-39 -33 -90 -33 -49 0 -60 4 -85 28 -54 55 -65 184 -21 256 38 61 119 83 174
47z"/>
<path d="M1507 1103 c-4 -3 -7 -123 -7 -265 l0 -258 55 0 55 0 0 265 0 265
-48 0 c-27 0 -52 -3 -55 -7z"/>
</g>
</svg>
