<?xml version="1.0" standalone="no"?>
<!DOCTYPE svg PUBLIC "-//W3C//DTD SVG 20010904//EN"
 "http://www.w3.org/TR/2001/REC-SVG-20010904/DTD/svg10.dtd">
<svg version="1.0" xmlns="http://www.w3.org/2000/svg"
 width="400.000000pt" height="400.000000pt" viewBox="0 0 400.000000 400.000000"
 preserveAspectRatio="xMidYMid meet">
<metadata>
Created by potrace 1.16, written by Peter Selinger 2001-2019
</metadata>
<g transform="translate(0.000000,400.000000) scale(0.100000,-0.100000)"
fill="#000000" stroke="none">
<path d="M2266 3321 c-24 -27 -16 -70 23 -120 30 -38 58 -94 86 -173 9 -26 28
-64 42 -85 l25 -37 -17 -57 c-34 -112 -1 -256 67 -297 33 -20 38 -15 45 40 3
24 10 52 16 62 9 18 11 16 29 -17 10 -20 46 -65 79 -99 l60 -63 -39 55 c-43
58 -112 190 -112 211 0 10 -3 10 -14 -1 -18 -19 -46 -102 -46 -135 0 -35 -15
-31 -41 11 -31 51 -37 154 -14 239 l17 65 -25 33 c-14 18 -37 68 -53 111 -26
73 -42 104 -95 175 -13 18 -19 36 -15 47 10 25 79 12 131 -25 25 -18 56 -31
73 -31 87 0 197 -65 306 -181 55 -58 79 -94 118 -178 94 -201 111 -233 132
-241 97 -38 138 -57 184 -87 28 -19 52 -38 52 -43 0 -4 -24 -10 -53 -13 -70
-9 -117 -26 -117 -43 0 -24 73 -88 140 -122 36 -18 76 -40 90 -49 22 -15 22
-13 -5 16 -16 18 -52 47 -80 66 -27 18 -59 43 -70 55 -24 27 -15 33 69 50 33
7 65 16 69 20 16 14 -113 118 -190 152 l-76 33 -83 173 c-74 153 -91 182 -151
244 -106 110 -202 167 -310 182 -23 3 -64 20 -92 37 -65 41 -129 49 -155 20z"/>
<path d="M676 2258 c-10 -45 -45 -501 -46 -585 0 -20 5 -23 44 -23 l43 0 7
133 c14 283 19 357 25 357 4 0 17 -30 28 -67 12 -38 47 -148 78 -245 l56 -178
39 0 c32 0 40 4 45 23 10 35 125 399 138 435 6 17 14 32 17 32 7 0 30 -299 30
-392 0 -92 4 -98 56 -98 l44 0 0 83 c0 71 -14 251 -36 480 l-7 68 -61 -3 -61
-3 -76 -230 c-69 -207 -78 -228 -88 -205 -6 14 -42 117 -79 230 l-67 205 -62
3 c-58 3 -63 1 -67 -20z"/>
<path d="M1350 2102 c0 -11 84 -279 110 -350 22 -59 26 -123 10 -153 -15 -26
-62 -49 -105 -49 -30 0 -35 -3 -35 -24 0 -27 16 -36 67 -36 106 0 201 115 272
329 28 84 71 254 71 281 0 5 -20 10 -45 10 -25 0 -45 -1 -45 -3 0 -24 -46
-231 -66 -296 -29 -94 -29 -94 -56 14 -9 33 -31 110 -49 170 l-35 110 -47 3
c-26 2 -47 -1 -47 -6z"/>
</g>
</svg>
