<?xml version="1.0" standalone="yes"?>
<svg xmlns="http://www.w3.org/2000/svg" width="225" height="224">
<path style="fill:#ffffff; stroke:none;" d="M0 0L0 109C5.22736 103.206 10.4648 97.5352 16 92C20.0385 87.9615 24.5651 84.2213 27 79L29 79C35.2523 93.8637 48.1536 105.906 56 120C48.4708 122.884 42.5777 120.253 35 118.665C23.4724 116.25 11.6879 113.485 0 112L0 224L109 224C99.3648 215.307 90.1928 206.193 81 197L62 178C58.2139 174.214 49.6962 168.431 48.5378 163C47.8801 159.916 50.9036 156.432 52.4244 154C56.1999 147.962 60.9254 137.883 69.8156 141.603C75.3715 143.929 79.4905 153.27 82.8588 158C93.4314 172.848 103.63 187.992 113.975 203C118.92 210.175 126.056 216.471 117 223C120.699 224.552 125.017 224 129 224L150 224L225 224L225 141L225 120C225 117.176 225.688 113.094 223.972 110.637C221.195 106.662 213.308 104.788 209 103.011C196.054 97.6681 183.322 91.342 170 87C174.902 83.6493 180.513 81.6199 186 79.3966C188.278 78.4737 191.151 76.7077 193.7 77.2438C197.211 77.9822 200.455 82.708 202.873 85.1265C210.175 92.4284 218.147 99.4446 224 108C225.552 104.301 225 99.9828 225 96L225 75L225 0L117 0C121.013 4.34033 130.133 10.0132 131.323 16C132.069 19.7506 127.914 24.1275 126 27C120.201 35.7023 113.472 44.5479 109 54C103.646 52.4328 99.0887 55.657 94 54.4028C83.9508 51.926 75.114 45.4023 65 43L92 16C97.2826 10.7175 102.308 4.4716 109 1C105.301 -0.552017 100.983 0 97 0L76 0L0 0z"/>
<path style="fill:#63c4cc; stroke:none;" d="M109.667 0.333328C109.222 0.777863 110.278 0.722229 110.333 0.666672C110.778 0.222244 109.722 0.277771 109.667 0.333328z"/>
<path style="fill:#3aadbc; stroke:none;" d="M84 25C85.7348 23.9957 87.7591 21.3267 89.6667 20.8333C91.7098 20.3049 96.5724 22.3988 99 22.5C104.783 22.741 111.095 23.5741 117 23C120.659 22.6443 125.948 20.8635 129 23C130.06 20.8884 131.674 18.4742 131.458 15.9985C130.866 9.18483 118.721 -0.21167 112 0.423615C103.56 1.22142 97.2363 10.5108 91.5363 15.8881C88.4929 18.7592 85.7829 21.1865 84 25z"/>
<path style="fill:#c5e8eb; stroke:none;" d="M115.667 0.333328C115.222 0.777863 116.278 0.722214 116.333 0.666672C116.778 0.222244 115.722 0.277771 115.667 0.333328z"/>
<path style="fill:#7acbd4; stroke:none;" d="M107 1L108 2L107 1z"/>
<path style="fill:#bbdfe7; stroke:none;" d="M118 1L119 2L118 1z"/>
<path style="fill:#a2d9df; stroke:none;" d="M105 2L106 3L105 2z"/>
<path style="fill:#7acbd4; stroke:none;" d="M119 2L120 3L119 2M104 3L105 4L104 3M103 4L104 5L103 4M100 7L101 8L100 7M97 10L98 11L97 10M94 13L95 14L94 13z"/>
<path style="fill:#63bdcd; stroke:none;" d="M132.333 15.6667C132.278 15.7222 132.222 16.7778 132.667 16.3333C132.722 16.2777 132.778 15.2223 132.333 15.6667z"/>
<path style="fill:#7acbd4; stroke:none;" d="M91 16L92 17L91 16M131 18L132 19L131 18z"/>
<path style="fill:#3daabc; stroke:none;" d="M75 34C81.6029 33.5973 87.5325 36.3868 94 36.9066C102.332 37.5763 110.798 36.0473 119 38C122.602 32.6602 126.836 27.4482 128 21C118.631 24.19 108.226 22.4501 98.5756 22.135C95.5171 22.0352 92.0023 20.596 89.0147 21.3696C83.2027 22.8745 77.419 28.8134 75 34z"/>
<path style="fill:#bbdfe7; stroke:none;" d="M130 20L131 21L130 20z"/>
<path style="fill:#87c9d8; stroke:none;" d="M129 21L130 22L129 21z"/>
<path style="fill:#40a7bd; stroke:none;" d="M138 21C133.255 29.5236 127.591 37.7949 122.293 46C120.022 49.5177 115.971 53.5864 115.798 57.9992C115.677 61.0769 117.584 63.9969 120.133 65.5617C126.828 69.6727 135.673 72.3035 143 75.1906C145.938 76.3481 149.542 78.5977 152.772 77.2392C157.155 75.3954 156.526 66.9447 157.261 63C158.317 57.3323 160.835 49.7609 159.643 44C158.873 40.2809 155.548 37.5665 152.999 35C148.201 30.1682 143.575 24.9271 138 21z"/>
<path style="fill:#a2d2de; stroke:none;" d="M137 22L138 23L137 22z"/>
<path style="fill:#a2d9df; stroke:none;" d="M128 23L129 24L128 23z"/>
<path style="fill:#87c9d8; stroke:none;" d="M127 24L128 25L127 24z"/>
<path style="fill:#a2d9df; stroke:none;" d="M135 25L136 26L135 25z"/>
<path style="fill:#a2d2de; stroke:none;" d="M126 26L127 27L126 26z"/>
<path style="fill:#b8dce5; stroke:none;" d="M133 28L134 29L133 28z"/>
<path style="fill:#a2d2de; stroke:none;" d="M124 29L125 30L124 29z"/>
<path style="fill:#bbdfe7; stroke:none;" d="M131 31L132 32L131 31z"/>
<path style="fill:#87c9d8; stroke:none;" d="M122 32L123 33L122 32z"/>
<path style="fill:#40a7bd; stroke:none;" d="M118 37C110.124 37 101.823 37.7522 94 36.8156C88.137 36.1136 82.2863 33.2601 76.2855 33.5733C72.8893 33.7506 67.3736 37.9511 67.9213 41.7724C68.4902 45.7414 78.8663 47.9625 82 49.4244C86.2061 51.3865 91.2841 54.2303 96 54.4869C107.193 55.0958 115.89 47.9129 118 37z"/>
<path style="fill:#bbdfe7; stroke:none;" d="M129 34L130 35L129 34z"/>
<path style="fill:#87c9d8; stroke:none;" d="M120 35L121 36L120 35M118 38L119 39L118 38M126 39L127 40L126 39z"/>
<path style="fill:#b8dce5; stroke:none;" d="M117 40L118 41L117 40z"/>
<path style="fill:#63bacd; stroke:none;" d="M66.3333 41.6667C66.2778 41.7222 66.2222 42.7778 66.6667 42.3333C66.7223 42.2777 66.7777 41.2223 66.3333 41.6667z"/>
<path style="fill:#b8dce5; stroke:none;" d="M65 42L66 43L65 42z"/>
<path style="fill:#a2d2de; stroke:none;" d="M124 42L125 43L124 42z"/>
<path style="fill:#b8dce5; stroke:none;" d="M67 43L68 44L67 43z"/>
<path style="fill:#a2d2de; stroke:none;" d="M115 43L116 44L115 43z"/>
<path style="fill:#8bc8d8; stroke:none;" d="M160.333 43.6667C160.278 43.7222 160.222 44.7778 160.667 44.3333C160.722 44.2777 160.778 43.2222 160.333 43.6667z"/>
<path style="fill:#63bacd; stroke:none;" d="M72.6667 45.3333C72.2222 45.7778 73.2778 45.7222 73.3333 45.6667C73.7778 45.2222 72.7222 45.2778 72.6667 45.3333M122.333 45.6667C122.278 45.7222 122.222 46.7778 122.667 46.3333C122.722 46.2777 122.778 45.2223 122.333 45.6667z"/>
<path style="fill:#b8dce5; stroke:none;" d="M160 45L160 48C160.696 46.4463 160.696 46.5537 160 45z"/>
<path style="fill:#bbdfe7; stroke:none;" d="M74 46L75 47L74 46z"/>
<path style="fill:#a2d2de; stroke:none;" d="M113 46L114 47L113 46z"/>
<path style="fill:#87c9d8; stroke:none;" d="M77 47L78 48L77 47M121 47L122 48L121 47z"/>
<path style="fill:#44a3bd; stroke:none;" d="M48 63C54.4333 64.3314 60.6663 66.5481 67 68.2932C73.2304 70.0099 79.6529 70.8186 85.9992 71.9992C87.9927 72.3701 91.2765 73.428 92.7315 71.3819C99.0336 62.5195 83.0452 57.5802 78 55.4275C73.3655 53.4499 65.0986 48.1223 60 48.9823C53.8173 50.0251 50.2844 57.9924 48 63z"/>
<path style="fill:#8bc8d8; stroke:none;" d="M61 48L62 49L61 48z"/>
<path style="fill:#63bacd; stroke:none;" d="M79.6667 48.3333C79.2222 48.7778 80.2778 48.7222 80.3333 48.6667C80.7778 48.2222 79.7222 48.2778 79.6667 48.3333z"/>
<path style="fill:#b8dce5; stroke:none;" d="M120 48L121 49L120 48z"/>
<path style="fill:#6fb8d0; stroke:none;" d="M159 48L159 51C159.696 49.4463 159.696 49.5537 159 48z"/>
<path style="fill:#bbdfe7; stroke:none;" d="M63.6667 49.3333C63.2222 49.7778 64.2778 49.7222 64.3333 49.6667C64.7778 49.2222 63.7222 49.2778 63.6667 49.3333z"/>
<path style="fill:#7fc5d6; stroke:none;" d="M81.6667 49.3333C81.2222 49.7778 82.2778 49.7222 82.3333 49.6667C82.7778 49.2222 81.7222 49.2778 81.6667 49.3333z"/>
<path style="fill:#a2d2de; stroke:none;" d="M111 49L112 50L111 49M66 50L67 51L66 50z"/>
<path style="fill:#cae4eb; stroke:none;" d="M166 50L166 53C166.696 51.4463 166.696 51.5537 166 50z"/>
<path style="fill:#47a0be; stroke:none;" d="M167 50C166.463 56.7994 165.752 64.393 164.14 70.9992C163.525 73.5184 162.278 77.6817 165.573 79.0123C167.944 79.9702 170.877 78.1109 173 77.2245C177.997 75.1377 182.872 72.7462 188 71C182.599 63.3328 174.667 55.4009 167 50z"/>
<path style="fill:#87c9d8; stroke:none;" d="M68 51L69 52L68 51z"/>
<path style="fill:#b8dce5; stroke:none;" d="M86 51L87 52L86 51M118 51L119 52L118 51M159 51L159 54C159.696 52.4463 159.696 52.5537 159 51M70.6667 52.3333C70.2222 52.7778 71.2778 52.7222 71.3333 52.6667C71.7778 52.2222 70.7222 52.2778 70.6667 52.3333z"/>
<path style="fill:#8bc8d8; stroke:none;" d="M89 52L90 53L89 52M109 52L110 53L109 52z"/>
<path style="fill:#a2d2de; stroke:none;" d="M73 53L74 54L73 53z"/>
<path style="fill:#8bc8d8; stroke:none;" d="M91 53L92 54L91 53z"/>
<path style="fill:#a2d2de; stroke:none;" d="M108 53L109 54L108 53z"/>
<path style="fill:#8bc8d8; stroke:none;" d="M117 53L118 54L117 53z"/>
<path style="fill:#7fc5d6; stroke:none;" d="M166.333 53.6667C166.278 53.7222 166.222 54.7778 166.667 54.3333C166.722 54.2777 166.778 53.2223 166.333 53.6667M75 54L76 55L75 54M93.6667 54.3333C93.2222 54.7778 94.2778 54.7222 94.3333 54.6667C94.7778 54.2222 93.7222 54.2778 93.6667 54.3333M98 54L99 55L98 54z"/>
<path style="fill:#b8dce5; stroke:none;" d="M96.6667 55.3333C96.2222 55.7778 97.2778 55.7222 97.3333 55.6667C97.7778 55.2222 96.7222 55.2778 96.6667 55.3333z"/>
<path style="fill:#8bc8d8; stroke:none;" d="M80 56L81 57L80 56z"/>
<path style="fill:#a2d2de; stroke:none;" d="M115 56L116 57L115 56z"/>
<path style="fill:#bbdfe7; stroke:none;" d="M82.6667 57.3333C82.2222 57.7778 83.2778 57.7222 83.3333 57.6667C83.7778 57.2222 82.7222 57.2778 82.6667 57.3333z"/>
<path style="fill:#cae4eb; stroke:none;" d="M114.333 57.6667C114.278 57.7222 114.222 58.7778 114.667 58.3333C114.722 58.2777 114.778 57.2223 114.333 57.6667z"/>
<path style="fill:#b8dce5; stroke:none;" d="M158.333 57.6667C158.278 57.7222 158.222 58.7778 158.667 58.3333C158.722 58.2778 158.778 57.2222 158.333 57.6667M165.333 57.6667C165.278 57.7222 165.222 58.7778 165.667 58.3333C165.722 58.2778 165.778 57.2223 165.333 57.6667z"/>
<path style="fill:#47a0be; stroke:none;" d="M49 58C45.1482 61.8518 35.6445 68.3108 35.0332 74C34.6574 77.4978 38.5211 81.3145 40.3302 84C45.517 91.6992 50.7413 99.3677 56.0255 107C58.231 110.186 60.7086 114.489 65.0139 114.793C69.9828 115.144 72.3656 110.576 74.6914 107C79.8808 99.0202 85.1712 91.0868 90.1921 83C92.6283 79.0763 95.4826 75.7221 95 71C89.7605 72.8748 85.3649 71.649 80 70.7531C69.1517 68.9415 58.8186 64.458 48 63C49.1202 60.8937 49.5767 60.2314 49 58z"/>
<path style="fill:#a2d2de; stroke:none;" d="M84.6667 58.3333C84.2222 58.7778 85.2778 58.7222 85.3333 58.6667C85.7778 58.2222 84.7222 58.2778 84.6667 58.3333z"/>
<path style="fill:#8bc8d8; stroke:none;" d="M87 59L88 60L87 59z"/>
<path style="fill:#cae4eb; stroke:none;" d="M115.333 59.6667C115.278 59.7222 115.222 60.7778 115.667 60.3333C115.722 60.2777 115.778 59.2223 115.333 59.6667z"/>
<path style="fill:#6fb8d0; stroke:none;" d="M165.333 59.6667C165.278 59.7222 165.222 60.7778 165.667 60.3333C165.722 60.2777 165.778 59.2223 165.333 59.6667z"/>
<path style="fill:#a2d2de; stroke:none;" d="M92 61L93 62L92 61z"/>
<path style="fill:#8bc8d8; stroke:none;" d="M116 61L116 64C116.696 62.4463 116.696 62.5537 116 61z"/>
<path style="fill:#7fc5d6; stroke:none;" d="M157 61L157 64C157.696 62.4463 157.696 62.5537 157 61z"/>
<path style="fill:#b8dce5; stroke:none;" d="M164.333 63.6667C164.278 63.7222 164.222 64.7778 164.667 64.3333C164.722 64.2777 164.778 63.2223 164.333 63.6667z"/>
<path style="fill:#a2d2de; stroke:none;" d="M117 64L118 65L117 64z"/>
<path style="fill:#cae4eb; stroke:none;" d="M157 64L157 67C157.696 65.4463 157.696 65.5537 157 64z"/>
<path style="fill:#bbdfe7; stroke:none;" d="M119 65L120 66L119 65z"/>
<path style="fill:#64b0cb; stroke:none;" d="M164 65L164 71C164.951 68.7147 164.951 67.2853 164 65z"/>
<path style="fill:#9bcad9; stroke:none;" d="M93.3333 67.6667C93.2778 67.7222 93.2222 68.7778 93.6667 68.3333C93.7222 68.2778 93.7778 67.2222 93.3333 67.6667z"/>
<path style="fill:#6fb8d0; stroke:none;" d="M124.667 67.3333C124.222 67.7778 125.278 67.7222 125.333 67.6667C125.778 67.2222 124.722 67.2778 124.667 67.3333z"/>
<path style="fill:#7ebbcf; stroke:none;" d="M156 67L156 71C156.71 69.2405 156.71 68.7595 156 67z"/>
<path style="fill:#b8dce5; stroke:none;" d="M126 68L127 69L126 68z"/>
<path style="fill:#cae4eb; stroke:none;" d="M163 68L163 71C163.696 69.4463 163.696 69.5537 163 68z"/>
<path style="fill:#6fb8d0; stroke:none;" d="M129.667 69.3333C129.222 69.7778 130.278 69.7222 130.333 69.6667C130.778 69.2222 129.722 69.2777 129.667 69.3333z"/>
<path style="fill:#b8dce5; stroke:none;" d="M94 70L95 71L94 70M131 70L132 71L131 70M114 71L115 72L114 71z"/>
<path style="fill:#47a0be; stroke:none;" d="M77 117C84.1766 115.885 91.3438 112.151 98 109.281L131 95.1505C136.798 92.6618 145.856 91.0129 147 84C139.851 82.2868 132.766 78.63 126 75.7191C123.081 74.4632 119.274 72.0144 116 72.2222C113.045 72.4097 110.647 74.8924 108.001 75.9961C105.833 76.9002 103.393 77.049 101.529 78.5995C96.5412 82.7476 93.2412 90.6278 89.6667 96C85.2486 102.64 79.8316 109.529 77 117z"/>
<path style="fill:#b8dce5; stroke:none;" d="M116 71L117 72L116 71z"/>
<path style="fill:#8bc4d9; stroke:none;" d="M163.333 71.6667C163.278 71.7222 163.222 72.7778 163.667 72.3333C163.722 72.2777 163.778 71.2223 163.333 71.6667z"/>
<path style="fill:#6fb8d0; stroke:none;" d="M136.667 72.3333C136.222 72.7778 137.278 72.7222 137.333 72.6667C137.778 72.2222 136.722 72.2777 136.667 72.3333z"/>
<path style="fill:#c7dfeb; stroke:none;" d="M183.667 72.3333C183.222 72.7778 184.278 72.7222 184.333 72.6667C184.778 72.2222 183.722 72.2777 183.667 72.3333z"/>
<path style="fill:#8bc4d9; stroke:none;" d="M120 73L121 74L120 73z"/>
<path style="fill:#b7d5e4; stroke:none;" d="M138 73L139 74L138 73z"/>
<path style="fill:#cee2ec; stroke:none;" d="M181.667 73.3333C181.222 73.7778 182.278 73.7222 182.333 73.6667C182.778 73.2222 181.722 73.2778 181.667 73.3333z"/>
<path style="fill:#8bc4d9; stroke:none;" d="M95 74L96 75L95 74z"/>
<path style="fill:#a2d2de; stroke:none;" d="M111 74L112 75L111 74z"/>
<path style="fill:#b8dce5; stroke:none;" d="M123 74L124 75L123 74z"/>
<path style="fill:#b7d5e4; stroke:none;" d="M179 74L180 75L179 74M34 75L35 76L34 75z"/>
<path style="fill:#9bcad9; stroke:none;" d="M125 75L126 76L125 75z"/>
<path style="fill:#6fb8d0; stroke:none;" d="M143.667 75.3333C143.222 75.7778 144.278 75.7222 144.333 75.6667C144.778 75.2222 143.722 75.2777 143.667 75.3333z"/>
<path style="fill:#a2d2de; stroke:none;" d="M155.333 75.6667C155.278 75.7222 155.222 76.7778 155.667 76.3333C155.722 76.2778 155.778 75.2222 155.333 75.6667z"/>
<path style="fill:#bbdfe7; stroke:none;" d="M94 76L95 77L94 76z"/>
<path style="fill:#b8dce5; stroke:none;" d="M102 76C104.052 76.8742 105.747 76.9528 108 77C105.948 76.1258 104.253 76.0472 102 76z"/>
<path style="fill:#c7dfeb; stroke:none;" d="M127.667 76.3333C127.222 76.7777 128.278 76.7223 128.333 76.6667C128.778 76.2221 127.722 76.2778 127.667 76.3333z"/>
<path style="fill:#7ebbcf; stroke:none;" d="M145.667 76.3333C145.222 76.7778 146.278 76.7222 146.333 76.6667C146.778 76.2222 145.722 76.2778 145.667 76.3333z"/>
<path style="fill:#c7dfeb; stroke:none;" d="M162.333 76.6667C162.278 76.7222 162.222 77.7778 162.667 77.3333C162.722 77.2778 162.778 76.2222 162.333 76.6667z"/>
<path style="fill:#7ebbcf; stroke:none;" d="M192.667 76.3333C192.222 76.7778 193.278 76.7223 193.333 76.6667C193.778 76.2222 192.722 76.2777 192.667 76.3333z"/>
<path style="fill:#bed9e7; stroke:none;" d="M194 76L195 77L194 76z"/>
<path style="fill:#8bc4d9; stroke:none;" d="M93 77L94 78L93 77z"/>
<path style="fill:#a2d2de; stroke:none;" d="M130 77L131 78L130 77z"/>
<path style="fill:#8bc4d9; stroke:none;" d="M153 77L154 78L153 77z"/>
<path style="fill:#4b9cbf; stroke:none;" d="M170 86C176.608 90.7774 185.471 93.2287 193 96.2855C203.22 100.435 213.365 106.069 224 109C220.782 99.535 209.935 91.9212 203 85C200.283 82.2888 197.075 77.9918 193 77.4475C186.589 76.5913 175.774 83.3113 170 86z"/>
<path style="fill:#d5e6ef; stroke:none;" d="M132.667 78.3333C132.222 78.7778 133.278 78.7222 133.333 78.6667C133.778 78.2222 132.722 78.2778 132.667 78.3333z"/>
<path style="fill:#7ebbcf; stroke:none;" d="M150.667 78.3333C150.222 78.7778 151.278 78.7222 151.333 78.6667C151.778 78.2222 150.722 78.2778 150.667 78.3333z"/>
<path style="fill:#8bc4d9; stroke:none;" d="M164 78L165 79L164 78z"/>
<path style="fill:#c7dfeb; stroke:none;" d="M169.667 78.3333C169.222 78.7778 170.278 78.7222 170.333 78.6667C170.778 78.2222 169.722 78.2778 169.667 78.3333z"/>
<path style="fill:#87bcd7; stroke:none;" d="M188 78L189 79L188 78z"/>
<path style="fill:#bed9e7; stroke:none;" d="M196 78L197 79L196 78z"/>
<path style="fill:#b7d5e4; stroke:none;" d="M27.6667 79.3333C27.2222 79.7778 28.2778 79.7222 28.3333 79.6667C28.7778 79.2222 27.7222 79.2778 27.6667 79.3333z"/>
<path style="fill:#8bc4d9; stroke:none;" d="M37 79L38 80L37 79z"/>
<path style="fill:#b7d5e4; stroke:none;" d="M100 79L101 80L100 79M185 79L186 80L185 79z"/>
<path style="fill:#bed9e7; stroke:none;" d="M197 79L198 80L197 79z"/>
<path style="fill:#4d9abf; stroke:none;" d="M26.9599 81.3457C24.2149 82.065 21.9207 85.0941 20 87.0008C15.0234 91.9408 9.7651 96.7555 5.1088 102C3.31614 104.019 0.198626 107.544 2.07176 110.436C4.04708 113.486 10.7958 113.516 14 114.084C23.3716 115.744 32.6405 118.016 42 119.754C44.8547 120.284 48.9923 122.244 51.8472 121.292C56.4852 119.747 52.9302 114.45 51.3256 112C45.9941 103.859 40.1262 96.0585 34.6698 88C33.0337 85.5837 30.628 80.3844 26.9599 81.3457z"/>
<path style="fill:#8bc4d9; stroke:none;" d="M91 80L92 81L91 80M139 81L140 82L139 81z"/>
<path style="fill:#b7d5e4; stroke:none;" d="M180 81L181 82L180 81z"/>
<path style="fill:#bed9e7; stroke:none;" d="M199 81L200 82L199 81z"/>
<path style="fill:#8bc4d9; stroke:none;" d="M39 82L40 83L39 82z"/>
<path style="fill:#b7d5e4; stroke:none;" d="M90 82L91 83L90 82M141.667 82.3333C141.222 82.7778 142.278 82.7222 142.333 82.6667C142.778 82.2222 141.722 82.2778 141.667 82.3333z"/>
<path style="fill:#6fb8d0; stroke:none;" d="M178.667 82.3333C178.222 82.7778 179.278 82.7222 179.333 82.6667C179.778 82.2222 178.722 82.2778 178.667 82.3333z"/>
<path style="fill:#bed9e7; stroke:none;" d="M200 82L201 83L200 82M31 83L32 84L31 83z"/>
<path style="fill:#a2d2de; stroke:none;" d="M144 83L145 84L144 83z"/>
<path style="fill:#8bc4d9; stroke:none;" d="M97 84L98 85L97 84z"/>
<path style="fill:#bed9e7; stroke:none;" d="M173 84L174 85L173 84M202 84L203 85L202 84z"/>
<path style="fill:#a2cade; stroke:none;" d="M41 85L42 86L41 85z"/>
<path style="fill:#b7d5e4; stroke:none;" d="M88 85L89 86L88 85z"/>
<path style="fill:#7ebbcf; stroke:none;" d="M147 85L147 88C147.696 86.4463 147.696 86.5537 147 85z"/>
<path style="fill:#bed9e7; stroke:none;" d="M203 85L204 86L203 85z"/>
<path style="fill:#b7d5e4; stroke:none;" d="M33 86L34 87L33 86z"/>
<path style="fill:#96c4db; stroke:none;" d="M171.667 87.3333C171.222 87.7778 172.278 87.7222 172.333 87.6667C172.778 87.2222 171.722 87.2778 171.667 87.3333z"/>
<path style="fill:#bed9e7; stroke:none;" d="M205 87L206 88L205 87z"/>
<path style="fill:#a2cade; stroke:none;" d="M43 88L44 89L43 88z"/>
<path style="fill:#9bcad9; stroke:none;" d="M86 88L87 89L86 88z"/>
<path style="fill:#a2cade; stroke:none;" d="M146 88L147 89L146 88z"/>
<path style="fill:#bed9e7; stroke:none;" d="M206 88L207 89L206 88z"/>
<path style="fill:#a2cade; stroke:none;" d="M35 89L36 90L35 89z"/>
<path style="fill:#96c4db; stroke:none;" d="M93 90L94 91L93 90z"/>
<path style="fill:#cee2ec; stroke:none;" d="M141.667 90.3333C141.222 90.7778 142.278 90.7222 142.333 90.6667C142.778 90.2222 141.722 90.2778 141.667 90.3333z"/>
<path style="fill:#a2cade; stroke:none;" d="M179 90L180 91L179 90z"/>
<path style="fill:#bed9e7; stroke:none;" d="M208 90L209 91L208 90z"/>
<path style="fill:#b7d5e4; stroke:none;" d="M45 91L46 92L45 91z"/>
<path style="fill:#9bcad9; stroke:none;" d="M84 91L85 92L84 91z"/>
<path style="fill:#d5e6ef; stroke:none;" d="M139.667 91.3333C139.222 91.7778 140.278 91.7222 140.333 91.6667C140.778 91.2222 139.722 91.2778 139.667 91.3333z"/>
<path style="fill:#b7d5e4; stroke:none;" d="M181 91L182 92L181 91z"/>
<path style="fill:#bed9e7; stroke:none;" d="M209 91L210 92L209 91z"/>
<path style="fill:#a2cade; stroke:none;" d="M37 92L38 93L37 92z"/>
<path style="fill:#b7d5e4; stroke:none;" d="M137 92L138 93L137 92z"/>
<path style="fill:#a2cade; stroke:none;" d="M91 93L92 94L91 93z"/>
<path style="fill:#87bcd7; stroke:none;" d="M134 93L135 94L134 93z"/>
<path style="fill:#6caece; stroke:none;" d="M166.667 93.3333C166.222 93.7778 167.278 93.7222 167.333 93.6667C167.778 93.2222 166.722 93.2778 166.667 93.3333z"/>
<path style="fill:#bed9e7; stroke:none;" d="M211 93L212 94L211 93z"/>
<path style="fill:#96c4db; stroke:none;" d="M82 94L83 95L82 94z"/>
<path style="fill:#cee2ec; stroke:none;" d="M150.667 94.3333C150.222 94.7778 151.278 94.7222 151.333 94.6667C151.778 94.2222 150.722 94.2778 150.667 94.3333z"/>
<path style="fill:#4d9abf; stroke:none;" d="M159 97C158.741 109.571 152.948 122.513 153.742 135C153.941 138.144 156.031 141.041 157 144C167.26 144.817 178.812 150.947 189 149.812C193.647 149.295 196.901 145.093 200 142C207.457 134.559 218.519 126.61 223 117C216.973 113.57 210.312 111.532 204 108.694C196.389 105.273 188.667 102.139 181 98.8495C176.987 97.1275 172.465 94.5388 168 94.4336C164.877 94.3601 161.926 96.1007 159 97z"/>
<path style="fill:#a2cade; stroke:none;" d="M169.667 94.3333C169.222 94.7778 170.278 94.7222 170.333 94.6667C170.778 94.2222 169.722 94.2777 169.667 94.3333z"/>
<path style="fill:#b7d5e4; stroke:none;" d="M188 94L189 95L188 94z"/>
<path style="fill:#bed9e7; stroke:none;" d="M212 94L213 95L212 94M147 95L148 96L147 95z"/>
<path style="fill:#4d9abf; stroke:none;" d="M79 125C82.1863 129.545 89.7798 129.921 95 130.905C103.325 132.475 111.766 133.901 120 135.898C128.566 137.975 137.237 141.045 144.486 134.049C147.371 131.265 147.009 126.683 147.59 123C149.062 113.672 151.593 104.477 152 95C142.462 95.9559 132.702 101.831 124 105.691C109.122 112.292 93.4946 117.593 79 125z"/>
<path style="fill:#b7d5e4; stroke:none;" d="M152.333 95.6667C152.278 95.7222 152.222 96.7778 152.667 96.3333C152.722 96.2777 152.778 95.2222 152.333 95.6667M40 96L41 97L40 96M89 96L90 97L89 96z"/>
<path style="fill:#cee2ec; stroke:none;" d="M127.667 96.3333C127.222 96.7778 128.278 96.7222 128.333 96.6667C128.778 96.2223 127.722 96.2778 127.667 96.3333z"/>
<path style="fill:#b7d5e4; stroke:none;" d="M145 96L146 97L145 96z"/>
<path style="fill:#c7dfeb; stroke:none;" d="M160.667 96.3333C160.222 96.7777 161.278 96.7223 161.333 96.6667C161.778 96.2222 160.722 96.2778 160.667 96.3333z"/>
<path style="fill:#79b4d2; stroke:none;" d="M193.667 96.3333C193.222 96.7777 194.278 96.7223 194.333 96.6667C194.778 96.2222 193.722 96.2778 193.667 96.3333z"/>
<path style="fill:#bed9e7; stroke:none;" d="M214 96L215 97L214 96M49 97L50 98L49 97z"/>
<path style="fill:#a2cade; stroke:none;" d="M125 97L126 98L125 97z"/>
<path style="fill:#d5e6ef; stroke:none;" d="M177.667 97.3333C177.222 97.7777 178.278 97.7223 178.333 97.6667C178.778 97.2222 177.722 97.2778 177.667 97.3333z"/>
<path style="fill:#bed9e7; stroke:none;" d="M195 97L196 98L195 97M215 97L216 98L215 97z"/>
<path style="fill:#96c4db; stroke:none;" d="M50 98L51 99L50 98z"/>
<path style="fill:#b7d5e4; stroke:none;" d="M42 99L43 100L42 99M79 99L80 100L79 99M87 99L88 100L87 99z"/>
<path style="fill:#96c4db; stroke:none;" d="M120 99L121 100L120 99z"/>
<path style="fill:#a2cade; stroke:none;" d="M138 99L139 100L138 99M182 99L183 100L182 99z"/>
<path style="fill:#b7d5e4; stroke:none;" d="M200 99L201 100L200 99z"/>
<path style="fill:#bed9e7; stroke:none;" d="M217 99L218 100L217 99z"/>
<path style="fill:#96c4db; stroke:none;" d="M135.667 100.333C135.222 100.778 136.278 100.722 136.333 100.667C136.778 100.222 135.722 100.278 135.667 100.333M151.333 100.667C151.278 100.722 151.222 101.778 151.667 101.333C151.722 101.278 151.778 100.222 151.333 100.667z"/>
<path style="fill:#cee2ec; stroke:none;" d="M184.667 100.333C184.222 100.778 185.278 100.722 185.333 100.667C185.778 100.222 184.722 100.278 184.667 100.333z"/>
<path style="fill:#87bcd7; stroke:none;" d="M202.667 100.333C202.222 100.778 203.278 100.722 203.333 100.667C203.778 100.222 202.722 100.278 202.667 100.333z"/>
<path style="fill:#bed9e7; stroke:none;" d="M218 100L219 101L218 100z"/>
<path style="fill:#a2cade; stroke:none;" d="M52 101L53 102L52 101z"/>
<path style="fill:#bed9e7; stroke:none;" d="M133 101L134 102L133 101z"/>
<path style="fill:#a2cade; stroke:none;" d="M158 101L158 104C158.696 102.446 158.696 102.554 158 101M44 102L45 103L44 102z"/>
<path style="fill:#b7d5e4; stroke:none;" d="M77 102L78 103L77 102z"/>
<path style="fill:#bed9e7; stroke:none;" d="M85 102L86 103L85 102z"/>
<path style="fill:#96c4db; stroke:none;" d="M113 102L114 103L113 102z"/>
<path style="fill:#a2cade; stroke:none;" d="M131 102L132 103L131 102z"/>
<path style="fill:#c7dfeb; stroke:none;" d="M151 102L151 105C151.696 103.446 151.696 103.554 151 102z"/>
<path style="fill:#79b4d2; stroke:none;" d="M207.667 102.333C207.222 102.778 208.278 102.722 208.333 102.667C208.778 102.222 207.722 102.278 207.667 102.333z"/>
<path style="fill:#a2cade; stroke:none;" d="M54 104L55 105L54 104z"/>
<path style="fill:#b7d5e4; stroke:none;" d="M126 104L127 105L126 104M194 104L195 105L194 104z"/>
<path style="fill:#a2cade; stroke:none;" d="M212 104L213 105L212 104z"/>
<path style="fill:#96c4db; stroke:none;" d="M46 105L47 106L46 105z"/>
<path style="fill:#a2cade; stroke:none;" d="M75 105L76 106L75 105z"/>
<path style="fill:#d5e6ef; stroke:none;" d="M106.667 105.333C106.222 105.778 107.278 105.722 107.333 105.667C107.778 105.222 106.722 105.278 106.667 105.333z"/>
<path style="fill:#a2cade; stroke:none;" d="M124 105L125 106L124 105z"/>
<path style="fill:#d5e6ef; stroke:none;" d="M157 105L157 109C157.71 107.241 157.71 106.759 157 105M196.667 105.333C196.222 105.778 197.278 105.722 197.333 105.667C197.778 105.222 196.722 105.278 196.667 105.333z"/>
<path style="fill:#87bcd7; stroke:none;" d="M214.667 105.333C214.222 105.778 215.278 105.722 215.333 105.667C215.778 105.222 214.722 105.278 214.667 105.333z"/>
<path style="fill:#96c4db; stroke:none;" d="M121.667 106.333C121.222 106.778 122.278 106.722 122.333 106.667C122.778 106.222 121.722 106.278 121.667 106.333z"/>
<path style="fill:#a2cade; stroke:none;" d="M223 106L224 107L223 106z"/>
<path style="fill:#b7d5e4; stroke:none;" d="M56 107L57 108L56 107z"/>
<path style="fill:#a2cade; stroke:none;" d="M82 107L83 108L82 107z"/>
<path style="fill:#b7d5e4; stroke:none;" d="M119 107L120 108L119 107M150 107L150 110C150.696 108.446 150.696 108.554 150 107z"/>
<path style="fill:#a2cade; stroke:none;" d="M219 107L220 108L219 107M73 108L74 109L73 108M99 108L100 109L99 108z"/>
<path style="fill:#96c4db; stroke:none;" d="M203 108L204 109L203 108z"/>
<path style="fill:#bed9e7; stroke:none;" d="M221 108L222 109L221 108M224 108L223 110L225 110C225 108.147 225.3 108.65 224 108z"/>
<path style="fill:#96c4db; stroke:none;" d="M0 109C0.405674 111.092 0.21666 111.02 2 112C1.30868 110.612 1.01543 110.139 0 109z"/>
<path style="fill:#bed9e7; stroke:none;" d="M49 109L50 110L49 109z"/>
<path style="fill:#87bcd7; stroke:none;" d="M114.667 109.333C114.222 109.778 115.278 109.722 115.333 109.667C115.778 109.222 114.722 109.278 114.667 109.333M157.333 109.667C157.278 109.722 157.222 110.778 157.667 110.333C157.722 110.278 157.778 109.222 157.333 109.667z"/>
<path style="fill:#b7d5e4; stroke:none;" d="M205.667 109.333C205.222 109.778 206.278 109.722 206.333 109.667C206.778 109.222 205.722 109.278 205.667 109.333z"/>
<path style="fill:#bed9e7; stroke:none;" d="M58 110L59 111L58 110z"/>
<path style="fill:#a2cade; stroke:none;" d="M80 110L81 111L80 110z"/>
<path style="fill:#b7d5e4; stroke:none;" d="M112 110L113 111L112 110z"/>
<path style="fill:#a2cade; stroke:none;" d="M208 110L209 111L208 110z"/>
<path style="fill:#96c4db; stroke:none;" d="M59 111L60 112L59 111z"/>
<path style="fill:#a2cade; stroke:none;" d="M92 111L93 112L92 111M110 111L111 112L110 111z"/>
<path style="fill:#cee2ec; stroke:none;" d="M210.667 111.333C210.222 111.778 211.278 111.722 211.333 111.667C211.778 111.222 210.722 111.278 210.667 111.333M3 112C4.24833 112.685 4.54845 112.749 6 113C4.75165 112.315 4.45158 112.251 3 112z"/>
<path style="fill:#b7d5e4; stroke:none;" d="M51 112L52 113L51 112z"/>
<path style="fill:#a2cade; stroke:none;" d="M9.66667 113.333C9.22223 113.778 10.2778 113.722 10.3333 113.667C10.7778 113.222 9.7222 113.278 9.66667 113.333z"/>
<path style="fill:#bed9e7; stroke:none;" d="M70 113L71 114L70 113z"/>
<path style="fill:#b7d5e4; stroke:none;" d="M78 113L79 114L78 113z"/>
<path style="fill:#96c4db; stroke:none;" d="M87 113L88 114L87 113z"/>
<path style="fill:#a2cade; stroke:none;" d="M149.333 113.667C149.278 113.722 149.222 114.778 149.667 114.333C149.722 114.278 149.778 113.222 149.333 113.667z"/>
<path style="fill:#96c4db; stroke:none;" d="M215 113L216 114L215 113z"/>
<path style="fill:#bed9e7; stroke:none;" d="M13.6667 114.333C13.2222 114.778 14.2778 114.722 14.3333 114.667C14.7778 114.222 13.7222 114.278 13.6667 114.333z"/>
<path style="fill:#87bcd7; stroke:none;" d="M15.6667 114.333C15.2222 114.778 16.2778 114.722 16.3333 114.667C16.7778 114.222 15.7222 114.278 15.6667 114.333z"/>
<path style="fill:#a2cade; stroke:none;" d="M61 114L62 115L61 114z"/>
<path style="fill:#96c4db; stroke:none;" d="M69 114L70 115L69 114z"/>
<path style="fill:#a2cade; stroke:none;" d="M84.6667 114.333C84.2222 114.778 85.2778 114.722 85.3333 114.667C85.7778 114.222 84.7222 114.278 84.6667 114.333z"/>
<path style="fill:#96c4db; stroke:none;" d="M156.333 114.667C156.278 114.722 156.222 115.778 156.667 115.333C156.722 115.278 156.778 114.222 156.333 114.667z"/>
<path style="fill:#d5e6ef; stroke:none;" d="M17 115C18.5061 115.683 19.3148 115.826 21 116C19.494 115.317 18.6852 115.174 17 115z"/>
<path style="fill:#a2cade; stroke:none;" d="M53 115L54 116L53 115z"/>
<path style="fill:#dfecf3; stroke:none;" d="M62 115C64.6127 116.098 67.1645 115.993 70 116C67.3873 114.902 64.8355 115.007 62 115z"/>
<path style="fill:#87bcd7; stroke:none;" d="M100.667 115.333C100.222 115.778 101.278 115.722 101.333 115.667C101.778 115.222 100.722 115.278 100.667 115.333M24.6667 116.333C24.2222 116.778 25.2778 116.722 25.3333 116.667C25.7778 116.222 24.7222 116.278 24.6667 116.333z"/>
<path style="fill:#b7d5e4; stroke:none;" d="M76 116L77 117L76 116z"/>
<path style="fill:#96c4db; stroke:none;" d="M80 116L81 117L80 116z"/>
<path style="fill:#a2cade; stroke:none;" d="M98 116L99 117L98 116z"/>
<path style="fill:#96c4db; stroke:none;" d="M222 116L223 117L222 116z"/>
<path style="fill:#c7dfeb; stroke:none;" d="M27 117C28.2483 117.685 28.5484 117.749 30 118C28.7517 117.315 28.4516 117.251 27 117z"/>
<path style="fill:#79b4d2; stroke:none;" d="M30.6667 117.333C30.2222 117.778 31.2778 117.722 31.3333 117.667C31.7778 117.222 30.7222 117.278 30.6667 117.333z"/>
<path style="fill:#dfecf3; stroke:none;" d="M75 117C75.9802 118.783 75.9076 118.594 78 119C76.8607 117.985 76.3884 117.691 75 117z"/>
<path style="fill:#79b4d2; stroke:none;" d="M76.6667 117.333C76.2222 117.778 77.2778 117.722 77.3333 117.667C77.7778 117.222 76.7222 117.278 76.6667 117.333z"/>
<path style="fill:#7bb6d3; stroke:none;" d="M148 117L148 120C148.696 118.446 148.696 118.554 148 117z"/>
<path style="fill:#a2cade; stroke:none;" d="M223 117L224 118L223 117z"/>
<path style="fill:#87bcd7; stroke:none;" d="M34.6667 118.333C34.2222 118.778 35.2778 118.722 35.3333 118.667C35.7778 118.222 34.7222 118.278 34.6667 118.333z"/>
<path style="fill:#d5e6ef; stroke:none;" d="M55.3333 118.667C55.2778 118.722 55.2222 119.778 55.6667 119.333C55.7223 119.278 55.7778 118.222 55.3333 118.667z"/>
<path style="fill:#87bcd7; stroke:none;" d="M93.6667 118.333C93.2222 118.778 94.2778 118.722 94.3333 118.667C94.7778 118.222 93.7222 118.278 93.6667 118.333z"/>
<path style="fill:#a2cade; stroke:none;" d="M3.66667 119.333C3.22222 119.778 4.27779 119.722 4.33333 119.667C4.77778 119.222 3.72223 119.278 3.66667 119.333z"/>
<path style="fill:#96c4db; stroke:none;" d="M38 119C39.2484 119.685 39.5484 119.749 41 120C39.7516 119.315 39.4516 119.251 38 119z"/>
<path style="fill:#a2cade; stroke:none;" d="M91 119L92 120L91 119z"/>
<path style="fill:#b7d5e4; stroke:none;" d="M155 119L155 122C155.696 120.446 155.696 120.554 155 119z"/>
<path style="fill:#4d9abf; stroke:none;" d="M4 120C7.65863 125.194 12.4691 129.551 17 133.995C19.2051 136.158 21.6731 139.134 25 139.303C32.6684 139.692 42.7088 132.376 50 130C46.5142 127.618 42.0518 127.801 38 126.706C27.2489 123.8 15.0879 120.967 4 120z"/>
<path style="fill:#b7d5e4; stroke:none;" d="M8.66667 120.333C8.22223 120.778 9.27777 120.722 9.33333 120.667C9.77778 120.222 8.72221 120.278 8.66667 120.333M42.6667 120.333C42.2222 120.778 43.2778 120.722 43.3333 120.667C43.7778 120.222 42.7222 120.278 42.6667 120.333z"/>
<path style="fill:#7bb6d3; stroke:none;" d="M44 120C45.2484 120.685 45.5484 120.749 47 121C45.7517 120.315 45.4516 120.251 44 120z"/>
<path style="fill:#96c4db; stroke:none;" d="M89 120L90 121L89 120z"/>
<path style="fill:#bed9e7; stroke:none;" d="M148.333 120.667C148.278 120.722 148.222 121.778 148.667 121.333C148.722 121.278 148.778 120.222 148.333 120.667z"/>
<path style="fill:#7bb6d3; stroke:none;" d="M11 121C12.2483 121.685 12.5484 121.749 14 122C12.7516 121.315 12.4516 121.251 11 121z"/>
<path style="fill:#cee2ec; stroke:none;" d="M14.6667 121.333C14.2222 121.778 15.2778 121.722 15.3333 121.667C15.7778 121.222 14.7222 121.278 14.6667 121.333M46 121C47.2484 121.685 47.5484 121.749 49 122C47.7516 121.315 47.4516 121.251 46 121z"/>
<path style="fill:#96c4db; stroke:none;" d="M53 121L54 122L53 121z"/>
<path style="fill:#bed9e7; stroke:none;" d="M86 121L87 122L86 121M18.6667 122.333C18.2222 122.778 19.2778 122.722 19.3333 122.667C19.7778 122.222 18.7222 122.278 18.6667 122.333z"/>
<path style="fill:#a2cade; stroke:none;" d="M22.6667 123.333C22.2222 123.778 23.2778 123.722 23.3333 123.667C23.7778 123.222 22.7222 123.278 22.6667 123.333z"/>
<path style="fill:#d5e6ef; stroke:none;" d="M24 123C25.2484 123.685 25.5484 123.749 27 124C25.7517 123.315 25.4516 123.251 24 123z"/>
<path style="fill:#79b4d2; stroke:none;" d="M147 123L147 126C147.696 124.446 147.696 124.554 147 123z"/>
<path style="fill:#bed9e7; stroke:none;" d="M218 123L219 124L218 123z"/>
<path style="fill:#87bcd7; stroke:none;" d="M26 124C27.2483 124.685 27.5484 124.749 29 125C27.7516 124.315 27.4516 124.251 26 124z"/>
<path style="fill:#7bb6d3; stroke:none;" d="M79.6667 124.333C79.2222 124.778 80.2778 124.722 80.3333 124.667C80.7778 124.222 79.7222 124.278 79.6667 124.333z"/>
<path style="fill:#cee2ec; stroke:none;" d="M154 124L154 127C154.696 125.446 154.696 125.554 154 124z"/>
<path style="fill:#bed9e7; stroke:none;" d="M217 124L218 125L217 124z"/>
<path style="fill:#cee2ec; stroke:none;" d="M33.6667 125.333C33.2222 125.778 34.2778 125.722 34.3333 125.667C34.7778 125.222 33.7222 125.278 33.6667 125.333z"/>
<path style="fill:#b7d5e4; stroke:none;" d="M37.6667 126.333C37.2222 126.778 38.2778 126.722 38.3333 126.667C38.7778 126.222 37.7222 126.278 37.6667 126.333z"/>
<path style="fill:#bed9e7; stroke:none;" d="M79.3333 126.667C79.2778 126.722 79.2222 127.778 79.6667 127.333C79.7222 127.278 79.7778 126.222 79.3333 126.667M147.333 126.667C147.278 126.722 147.222 127.778 147.667 127.333C147.722 127.278 147.778 126.222 147.333 126.667M215 126L216 127L215 126z"/>
<path style="fill:#7bb6d3; stroke:none;" d="M40 127C41.2484 127.685 41.5484 127.749 43 128C41.7517 127.315 41.4516 127.251 40 127z"/>
<path style="fill:#cee2ec; stroke:none;" d="M43.6667 127.333C43.2222 127.778 44.2778 127.722 44.3333 127.667C44.7777 127.222 43.7222 127.278 43.6667 127.333z"/>
<path style="fill:#87bcd7; stroke:none;" d="M154 127L154 130C154.696 128.446 154.696 128.554 154 127z"/>
<path style="fill:#bed9e7; stroke:none;" d="M214 127L215 128L214 127z"/>
<path style="fill:#a2cade; stroke:none;" d="M81 128C82.2484 128.685 82.5484 128.749 84 129C82.7516 128.315 82.4516 128.251 81 128M86.6667 129.333C86.2222 129.778 87.2778 129.722 87.3333 129.667C87.7778 129.222 86.7222 129.278 86.6667 129.333z"/>
<path style="fill:#79b4d2; stroke:none;" d="M88.6667 129.333C88.2222 129.778 89.2778 129.722 89.3333 129.667C89.7778 129.222 88.7222 129.278 88.6667 129.333z"/>
<path style="fill:#bed9e7; stroke:none;" d="M212 129L213 130L212 129z"/>
<path style="fill:#c7dfeb; stroke:none;" d="M90 130C91.2484 130.685 91.5484 130.749 93 131C91.7516 130.315 91.4516 130.251 90 130z"/>
<path style="fill:#bed9e7; stroke:none;" d="M211 130L212 131L211 130z"/>
<path style="fill:#a2cade; stroke:none;" d="M45 131L46 132L45 131z"/>
<path style="fill:#96c4db; stroke:none;" d="M96 131C97.2484 131.685 97.5484 131.749 99 132C97.7517 131.315 97.4516 131.251 96 131z"/>
<path style="fill:#a2cade; stroke:none;" d="M146 131L146 134C146.696 132.446 146.696 132.554 146 131z"/>
<path style="fill:#bed9e7; stroke:none;" d="M42.6667 132.333C42.2222 132.778 43.2778 132.722 43.3333 132.667C43.7778 132.222 42.7222 132.278 42.6667 132.333z"/>
<path style="fill:#b7d5e4; stroke:none;" d="M100.667 132.333C100.222 132.778 101.278 132.722 101.333 132.667C101.778 132.222 100.722 132.278 100.667 132.333z"/>
<path style="fill:#7bb6d3; stroke:none;" d="M102 132C103.248 132.685 103.548 132.749 105 133C103.752 132.315 103.452 132.251 102 132z"/>
<path style="fill:#a2cade; stroke:none;" d="M153 132L153 135C153.696 133.446 153.696 133.554 153 132z"/>
<path style="fill:#bed9e7; stroke:none;" d="M209 132L210 133L209 132z"/>
<path style="fill:#96c4db; stroke:none;" d="M40 133L41 134L40 133M106.667 133.333C106.222 133.778 107.278 133.722 107.333 133.667C107.778 133.222 106.722 133.278 106.667 133.333z"/>
<path style="fill:#bed9e7; stroke:none;" d="M208 133L209 134L208 133z"/>
<path style="fill:#a2cade; stroke:none;" d="M38 134L39 135L38 134z"/>
<path style="fill:#c7dfeb; stroke:none;" d="M77.6667 134.333C77.2222 134.778 78.2778 134.722 78.3333 134.667C78.7778 134.222 77.7222 134.278 77.6667 134.333z"/>
<path style="fill:#87bcd7; stroke:none;" d="M111.667 134.333C111.222 134.778 112.278 134.722 112.333 134.667C112.778 134.222 111.722 134.278 111.667 134.333z"/>
<path style="fill:#b7d5e4; stroke:none;" d="M144.667 134.333C144.222 134.778 145.278 134.722 145.333 134.667C145.778 134.222 144.722 134.278 144.667 134.333z"/>
<path style="fill:#cee2ec; stroke:none;" d="M52.6667 135.333C52.2222 135.778 53.2778 135.722 53.3333 135.667C53.7778 135.222 52.7222 135.278 52.6667 135.333z"/>
<path style="fill:#4d9abf; stroke:none;" d="M77 135C79.2597 143.712 87.0176 151.599 92 159C103.969 176.779 115.94 195.01 129 212C136.406 206.362 135.089 196.345 136.884 188C138.521 180.395 139.419 172.662 140.75 165C141.322 161.704 142.623 157.552 141.408 154.285C138.548 146.598 131.794 146.281 125 144.626C109.603 140.874 92.7631 136.374 77 135z"/>
<path style="fill:#b7d5e4; stroke:none;" d="M81.6667 135.333C81.2222 135.778 82.2778 135.722 82.3333 135.667C82.7778 135.222 81.7222 135.278 81.6667 135.333z"/>
<path style="fill:#c7dfeb; stroke:none;" d="M114 135C115.248 135.685 115.548 135.749 117 136C115.752 135.315 115.452 135.251 114 135z"/>
<path style="fill:#79b4d2; stroke:none;" d="M117.667 135.333C117.222 135.778 118.278 135.722 118.333 135.667C118.778 135.222 117.722 135.278 117.667 135.333z"/>
<path style="fill:#bed9e7; stroke:none;" d="M206 135L207 136L206 135z"/>
<path style="fill:#d5e6ef; stroke:none;" d="M33.6667 136.333C33.2222 136.778 34.2778 136.722 34.3333 136.667C34.7778 136.222 33.7222 136.278 33.6667 136.333z"/>
<path style="fill:#4d9abf; stroke:none;" d="M30 145C32.512 150.387 37.1801 154.605 42 158L55 137C47.0026 135.499 37.6832 142.804 30 145z"/>
<path style="fill:#b7d5e4; stroke:none;" d="M76 136L77 137L76 136z"/>
<path style="fill:#7bb6d3; stroke:none;" d="M84 136C85.2484 136.685 85.5484 136.749 87 137C85.7517 136.315 85.4516 136.251 84 136z"/>
<path style="fill:#cee2ec; stroke:none;" d="M87.6667 136.333C87.2222 136.778 88.2778 136.722 88.3333 136.667C88.7778 136.222 87.7222 136.278 87.6667 136.333z"/>
<path style="fill:#87bcd7; stroke:none;" d="M121.667 136.333C121.222 136.778 122.278 136.722 122.333 136.667C122.778 136.222 121.722 136.278 121.667 136.333z"/>
<path style="fill:#a2cade; stroke:none;" d="M140 136L141 137L140 136z"/>
<path style="fill:#bed9e7; stroke:none;" d="M205 136L206 137L205 136z"/>
<path style="fill:#b7d5e4; stroke:none;" d="M31 137L32 138L31 137M91.6667 137.333C91.2222 137.778 92.2778 137.722 92.3333 137.667C92.7778 137.222 91.7222 137.278 91.6667 137.333z"/>
<path style="fill:#c7dfeb; stroke:none;" d="M124.667 137.333C124.222 137.778 125.278 137.722 125.333 137.667C125.778 137.222 124.722 137.278 124.667 137.333z"/>
<path style="fill:#bed9e7; stroke:none;" d="M139 137L140 138L139 137M28.6667 138.333C28.2222 138.778 29.2778 138.722 29.3333 138.667C29.7778 138.222 28.7222 138.278 28.6667 138.333z"/>
<path style="fill:#79b4d2; stroke:none;" d="M46.6667 138.333C46.2222 138.778 47.2778 138.722 47.3333 138.667C47.7778 138.222 46.7222 138.278 46.6667 138.333z"/>
<path style="fill:#a2cade; stroke:none;" d="M95.6667 138.333C95.2222 138.778 96.2778 138.722 96.3333 138.667C96.7778 138.222 95.7222 138.278 95.6667 138.333z"/>
<path style="fill:#d5e6ef; stroke:none;" d="M97.6667 138.333C97.2222 138.778 98.2778 138.722 98.3333 138.667C98.7778 138.222 97.7222 138.278 97.6667 138.333z"/>
<path style="fill:#bed9e7; stroke:none;" d="M129.667 138.333C129.222 138.778 130.278 138.722 130.333 138.667C130.778 138.222 129.722 138.278 129.667 138.333z"/>
<path style="fill:#87bcd7; stroke:none;" d="M131.667 138.333C131.222 138.778 132.278 138.722 132.333 138.667C132.778 138.222 131.722 138.278 131.667 138.333z"/>
<path style="fill:#b7d5e4; stroke:none;" d="M138 138L139 139L138 138z"/>
<path style="fill:#bed9e7; stroke:none;" d="M203 138L204 139L203 138z"/>
<path style="fill:#a2cade; stroke:none;" d="M26 139L27 140L26 139M53 139L54 140L53 139z"/>
<path style="fill:#b7d5e4; stroke:none;" d="M78 139L79 140L78 139z"/>
<path style="fill:#87bcd7; stroke:none;" d="M99 139C100.248 139.685 100.548 139.749 102 140C100.752 139.315 100.452 139.251 99 139z"/>
<path style="fill:#96c4db; stroke:none;" d="M135 139C136.248 139.685 136.548 139.749 138 140C136.752 139.315 136.452 139.251 135 139z"/>
<path style="fill:#bed9e7; stroke:none;" d="M155 139L156 140L155 139M202 139L203 140L202 139z"/>
<path style="fill:#96c4db; stroke:none;" d="M79 140L80 141L79 140z"/>
<path style="fill:#a2cade; stroke:none;" d="M105.667 140.333C105.222 140.778 106.278 140.722 106.333 140.667C106.778 140.222 105.722 140.278 105.667 140.333z"/>
<path style="fill:#b7d5e4; stroke:none;" d="M39 141L40 142L39 141M60.6667 141.333C60.2222 141.778 61.2778 141.722 61.3333 141.667C61.7777 141.222 60.7223 141.278 60.6667 141.333z"/>
<path style="fill:#dfecf3; stroke:none;" d="M62 141C64.3316 141.985 66.4566 141.981 69 142C66.6684 141.015 64.5433 141.019 62 141z"/>
<path style="fill:#4d9abf; stroke:none;" d="M60 142C56.8821 146.622 53.6994 151.23 50.8117 156C49.5935 158.012 47.7103 160.5 48.0216 163C48.6289 167.876 55.7422 172.742 59 176L91 208L96 212.996C101.49 218.42 115.735 230.909 122.172 218.812C123.475 216.362 121.892 214.032 120.556 212C117.426 207.241 113.982 202.669 110.72 198C102.836 186.717 95.1743 175.278 87.2801 164C82.0766 156.566 76.0427 149.127 72 141C67.7374 141.719 64.3565 142.707 60 142z"/>
<path style="fill:#87bcd7; stroke:none;" d="M109.667 141.333C109.222 141.778 110.278 141.722 110.333 141.667C110.778 141.222 109.722 141.278 109.667 141.333z"/>
<path style="fill:#cee2ec; stroke:none;" d="M111 141C112.248 141.685 112.548 141.749 114 142C112.752 141.315 112.452 141.251 111 141z"/>
<path style="fill:#d5e6ef; stroke:none;" d="M156.333 141.667C156.278 141.722 156.222 142.778 156.667 142.333C156.722 142.278 156.778 141.222 156.333 141.667z"/>
<path style="fill:#bed9e7; stroke:none;" d="M200 141L201 142L200 141z"/>
<path style="fill:#a2cade; stroke:none;" d="M51 142L52 143L51 142z"/>
<path style="fill:#6caece; stroke:none;" d="M62 142C63.7691 142.779 65.0359 142.912 67 143C65.231 142.221 63.9641 142.088 62 142z"/>
<path style="fill:#96c4db; stroke:none;" d="M114 142C115.248 142.685 115.548 142.749 117 143C115.752 142.315 115.452 142.251 114 142z"/>
<path style="fill:#bed9e7; stroke:none;" d="M199 142L200 143L199 142z"/>
<path style="fill:#96c4db; stroke:none;" d="M81 143L82 144L81 143z"/>
<path style="fill:#b7d5e4; stroke:none;" d="M120 143C121.248 143.685 121.548 143.749 123 144C121.752 143.315 121.452 143.251 120 143M32 144L33 145L32 144z"/>
<path style="fill:#a2cade; stroke:none;" d="M58 144L59 145L58 144z"/>
<path style="fill:#96c4db; stroke:none;" d="M73 144L74 145L73 144M124.667 144.333C124.222 144.778 125.278 144.722 125.333 144.667C125.778 144.222 124.722 144.278 124.667 144.333z"/>
<path style="fill:#d5e6ef; stroke:none;" d="M126 144C127.248 144.685 127.548 144.749 129 145C127.752 144.315 127.452 144.251 126 144z"/>
<path style="fill:#a2cade; stroke:none;" d="M159 144C160.248 144.685 160.548 144.749 162 145C160.752 144.315 160.452 144.251 159 144z"/>
<path style="fill:#bed9e7; stroke:none;" d="M197 144L198 145L197 144z"/>
<path style="fill:#a2cade; stroke:none;" d="M49 145L50 146L49 145z"/>
<path style="fill:#7bb6d3; stroke:none;" d="M128 145C129.248 145.685 129.548 145.749 131 146C129.752 145.315 129.452 145.251 128 145z"/>
<path style="fill:#d5e6ef; stroke:none;" d="M131.667 145.333C131.222 145.778 132.278 145.722 132.333 145.667C132.778 145.222 131.722 145.278 131.667 145.333M162 145C163.248 145.685 163.548 145.749 165 146C163.752 145.315 163.452 145.251 162 145z"/>
<path style="fill:#79b4d2; stroke:none;" d="M165.667 145.333C165.222 145.778 166.278 145.722 166.333 145.667C166.778 145.222 165.722 145.278 165.667 145.333z"/>
<path style="fill:#bed9e7; stroke:none;" d="M196 145L197 146L196 145z"/>
<path style="fill:#a2cade; stroke:none;" d="M83 146L84 147L83 146z"/>
<path style="fill:#96c4db; stroke:none;" d="M135 146L136 147L135 146M169.667 146.333C169.222 146.778 170.278 146.722 170.333 146.667C170.778 146.222 169.722 146.278 169.667 146.333z"/>
<path style="fill:#b7d5e4; stroke:none;" d="M56 147L57 148L56 147M173.667 147.333C173.222 147.778 174.278 147.722 174.333 147.667C174.778 147.222 173.722 147.278 173.667 147.333z"/>
<path style="fill:#7bb6d3; stroke:none;" d="M175.667 147.333C175.222 147.778 176.278 147.722 176.333 147.667C176.778 147.222 175.722 147.278 175.667 147.333z"/>
<path style="fill:#bed9e7; stroke:none;" d="M194 147L195 148L194 147z"/>
<path style="fill:#b7d5e4; stroke:none;" d="M76 148L77 149L76 148z"/>
<path style="fill:#cee2ec; stroke:none;" d="M177 148C178.248 148.685 178.548 148.749 180 149C178.752 148.315 178.452 148.251 177 148z"/>
<path style="fill:#b7d5e4; stroke:none;" d="M85 149L86 150L85 149z"/>
<path style="fill:#a2cade; stroke:none;" d="M183.667 149.333C183.222 149.778 184.278 149.722 184.333 149.667C184.778 149.222 183.722 149.278 183.667 149.333z"/>
<path style="fill:#b7d5e4; stroke:none;" d="M54 150L55 151L54 150M138 150L139 151L138 150z"/>
<path style="fill:#d5e6ef; stroke:none;" d="M155.667 150.333C155.222 150.778 156.278 150.722 156.333 150.667C156.778 150.222 155.722 150.278 155.667 150.333z"/>
<path style="fill:#bed9e7; stroke:none;" d="M187.667 150.333C187.222 150.778 188.278 150.722 188.333 150.667C188.778 150.222 187.722 150.278 187.667 150.333z"/>
<path style="fill:#87bcd7; stroke:none;" d="M189.667 150.333C189.222 150.778 190.278 150.722 190.333 150.667C190.778 150.222 189.722 150.278 189.667 150.333z"/>
<path style="fill:#b7d5e4; stroke:none;" d="M78 151L79 152L78 151z"/>
<path style="fill:#4d9abf; stroke:none;" d="M143 198C150.799 192.506 157.263 184.737 164 178C170.737 171.263 178.506 164.799 184 157C176.857 154.993 169.317 153.508 162 152.25C159.108 151.753 155.856 150.914 153.144 152.473C148.728 155.012 149.295 160.671 148.711 165C147.224 176.039 145.064 187.047 143 198z"/>
<path style="fill:#87bcd7; stroke:none;" d="M157 151C158.248 151.685 158.548 151.749 160 152C158.752 151.315 158.452 151.251 157 151z"/>
<path style="fill:#bed9e7; stroke:none;" d="M87 152L88 153L87 152z"/>
<path style="fill:#b7d5e4; stroke:none;" d="M140 152L141 153L140 152z"/>
<path style="fill:#a2cade; stroke:none;" d="M163.667 152.333C163.222 152.778 164.278 152.722 164.333 152.667C164.778 152.222 163.722 152.278 163.667 152.333z"/>
<path style="fill:#b7d5e4; stroke:none;" d="M44 153L45 154L44 153z"/>
<path style="fill:#bed9e7; stroke:none;" d="M52 153L53 154L52 153z"/>
<path style="fill:#96c4db; stroke:none;" d="M88 153L89 154L88 153z"/>
<path style="fill:#a2cade; stroke:none;" d="M151 153L152 154L151 153z"/>
<path style="fill:#b7d5e4; stroke:none;" d="M168 153C169.248 153.685 169.548 153.749 171 154C169.752 153.315 169.452 153.251 168 153z"/>
<path style="fill:#a2cade; stroke:none;" d="M80 154L81 155L80 154M142.333 154.667C142.278 154.722 142.222 155.778 142.667 155.333C142.722 155.278 142.778 154.222 142.333 154.667z"/>
<path style="fill:#79b4d2; stroke:none;" d="M171 154C172.248 154.685 172.548 154.749 174 155C172.752 154.315 172.452 154.251 171 154z"/>
<path style="fill:#cee2ec; stroke:none;" d="M174.667 154.333C174.222 154.778 175.278 154.722 175.333 154.667C175.778 154.222 174.722 154.278 174.667 154.333z"/>
<path style="fill:#b7d5e4; stroke:none;" d="M178.667 155.333C178.222 155.778 179.278 155.722 179.333 155.667C179.778 155.222 178.722 155.278 178.667 155.333M42 156L43 157L42 156z"/>
<path style="fill:#96c4db; stroke:none;" d="M90 156L91 157L90 156z"/>
<path style="fill:#cee2ec; stroke:none;" d="M142.333 156.667C142.278 156.722 142.222 157.778 142.667 157.333C142.722 157.278 142.778 156.222 142.333 156.667z"/>
<path style="fill:#b7d5e4; stroke:none;" d="M149.333 156.667C149.278 156.722 149.222 157.778 149.667 157.333C149.722 157.278 149.778 156.222 149.333 156.667z"/>
<path style="fill:#96c4db; stroke:none;" d="M182.667 156.333C182.222 156.778 183.278 156.722 183.333 156.667C183.778 156.222 182.722 156.278 182.667 156.333z"/>
<path style="fill:#c7dfeb; stroke:none;" d="M184.333 156.667C184.278 156.722 184.222 157.778 184.667 157.333C184.722 157.278 184.778 156.222 184.333 156.667z"/>
<path style="fill:#a2cade; stroke:none;" d="M82 157L83 158L82 157M49 158L50 159L49 158z"/>
<path style="fill:#bed9e7; stroke:none;" d="M83 158L84 159L83 158z"/>
<path style="fill:#b7d5e4; stroke:none;" d="M92 159L93 160L92 159z"/>
<path style="fill:#96c4db; stroke:none;" d="M84 160L85 161L84 160z"/>
<path style="fill:#a2cade; stroke:none;" d="M141 160L141 163C141.696 161.446 141.696 161.554 141 160M47 161L48 162L47 161z"/>
<path style="fill:#b7d5e4; stroke:none;" d="M85 161L86 162L85 161z"/>
<path style="fill:#c7dfeb; stroke:none;" d="M148 161L148 164C148.696 162.446 148.696 162.554 148 161z"/>
<path style="fill:#b7d5e4; stroke:none;" d="M94 162L95 163L94 162z"/>
<path style="fill:#a2cade; stroke:none;" d="M87 164L88 165L87 164z"/>
<path style="fill:#87bcd7; stroke:none;" d="M148 164L148 167C148.696 165.446 148.696 165.554 148 164z"/>
<path style="fill:#96c4db; stroke:none;" d="M97 166L98 167L97 166M140.333 166.667C140.278 166.722 140.222 167.778 140.667 167.333C140.722 167.278 140.778 166.222 140.333 166.667M89 167L90 168L89 167z"/>
<path style="fill:#bed9e7; stroke:none;" d="M147.333 168.667C147.278 168.722 147.222 169.778 147.667 169.333C147.722 169.278 147.778 168.222 147.333 168.667z"/>
<path style="fill:#96c4db; stroke:none;" d="M99 169L100 170L99 169M91 170L92 171L91 170z"/>
<path style="fill:#79b4d2; stroke:none;" d="M147.333 170.667C147.278 170.722 147.222 171.778 147.667 171.333C147.722 171.278 147.778 170.222 147.333 170.667z"/>
<path style="fill:#bed9e7; stroke:none;" d="M92 171L93 172L92 171z"/>
<path style="fill:#87bcd7; stroke:none;" d="M139.333 171.667C139.278 171.722 139.222 172.778 139.667 172.333C139.722 172.278 139.778 171.222 139.333 171.667z"/>
<path style="fill:#b7d5e4; stroke:none;" d="M101 172L102 173L101 172M139.333 173.667C139.278 173.722 139.222 174.778 139.667 174.333C139.722 174.278 139.778 173.222 139.333 173.667M94 174L95 175L94 174M103 175L104 176L103 175z"/>
<path style="fill:#a2cade; stroke:none;" d="M146.333 175.667C146.278 175.722 146.222 176.778 146.667 176.333C146.722 176.278 146.778 175.222 146.333 175.667z"/>
<path style="fill:#96c4db; stroke:none;" d="M104 176L105 177L104 176z"/>
<path style="fill:#b7d5e4; stroke:none;" d="M96 177L97 178L96 177z"/>
<path style="fill:#79b4d2; stroke:none;" d="M146 177L146 180C146.696 178.446 146.696 178.554 146 177z"/>
<path style="fill:#a2cade; stroke:none;" d="M106 179L107 180L106 179z"/>
<path style="fill:#b7d5e4; stroke:none;" d="M138.333 179.667C138.278 179.722 138.222 180.778 138.667 180.333C138.722 180.278 138.778 179.222 138.333 179.667z"/>
<path style="fill:#cee2ec; stroke:none;" d="M145 179L145 182C145.696 180.446 145.696 180.554 145 179z"/>
<path style="fill:#a2cade; stroke:none;" d="M98 180L99 181L98 180M108 182L109 183L108 182z"/>
<path style="fill:#96c4db; stroke:none;" d="M145.333 182.667C145.278 182.722 145.222 183.778 145.667 183.333C145.722 183.278 145.778 182.222 145.333 182.667M100 183L101 184L100 183z"/>
<path style="fill:#b7d5e4; stroke:none;" d="M110 185L111 186L110 185M137 185L137 188C137.696 186.446 137.696 186.554 137 185z"/>
<path style="fill:#bed9e7; stroke:none;" d="M103 187L104 188L103 187z"/>
<path style="fill:#87bcd7; stroke:none;" d="M144.333 188.667C144.278 188.722 144.222 189.778 144.667 189.333C144.722 189.278 144.778 188.222 144.333 188.667z"/>
<path style="fill:#96c4db; stroke:none;" d="M113 189L114 190L113 189z"/>
<path style="fill:#87bcd7; stroke:none;" d="M136 189L136 192C136.696 190.446 136.696 190.554 136 189z"/>
<path style="fill:#b7d5e4; stroke:none;" d="M105 190L106 191L105 190z"/>
<path style="fill:#a2cade; stroke:none;" d="M115 192L116 193L115 192z"/>
<path style="fill:#c7dfeb; stroke:none;" d="M136 192L136 195C136.696 193.446 136.696 193.554 136 192M143.333 192.667C143.278 192.722 143.222 193.778 143.667 193.333C143.722 193.278 143.778 192.222 143.333 192.667z"/>
<path style="fill:#a2cade; stroke:none;" d="M107 193L108 194L107 193z"/>
<path style="fill:#96c4db; stroke:none;" d="M143.333 194.667C143.278 194.722 143.222 195.778 143.667 195.333C143.722 195.278 143.778 194.222 143.333 194.667z"/>
<path style="fill:#a2cade; stroke:none;" d="M117 195L118 196L117 195M109 196L110 197L109 196z"/>
<path style="fill:#b7d5e4; stroke:none;" d="M135 197L135 200C135.696 198.446 135.696 198.554 135 197z"/>
<path style="fill:#bed9e7; stroke:none;" d="M119 198L120 199L119 198z"/>
<path style="fill:#96c4db; stroke:none;" d="M111 199L112 200L111 199z"/>
<path style="fill:#b7d5e4; stroke:none;" d="M112 200L113 201L112 200z"/>
<path style="fill:#bed9e7; stroke:none;" d="M121 201L122 202L121 201z"/>
<path style="fill:#96c4db; stroke:none;" d="M122 202L123 203L122 202z"/>
<path style="fill:#b7d5e4; stroke:none;" d="M114 203L115 204L114 203z"/>
<path style="fill:#a2cade; stroke:none;" d="M134.333 203.667C134.278 203.722 134.222 204.778 134.667 204.333C134.722 204.278 134.778 203.222 134.333 203.667M124 205L125 206L124 205M116 206L117 207L116 206M126 208L127 209L126 208z"/>
<path style="fill:#96c4db; stroke:none;" d="M118 209L119 210L118 209z"/>
<path style="fill:#b7d5e4; stroke:none;" d="M128 211L129 212L128 211z"/>
<path style="fill:#bed9e7; stroke:none;" d="M121 213L122 214L121 213z"/>
<path style="fill:#b7d5e4; stroke:none;" d="M123 216L124 217L123 216z"/>
<path style="fill:#96c4db; stroke:none;" d="M103 219L104 220L103 219M104 220L105 221L104 220z"/>
<path style="fill:#a2cade; stroke:none;" d="M105 221L106 222L105 221z"/>
<path style="fill:#96c4db; stroke:none;" d="M119 221L120 222L119 221z"/>
<path style="fill:#bed9e7; stroke:none;" d="M118 222L119 223L118 222z"/>
<path style="fill:#79b4d2; stroke:none;" d="M109.667 223.333C109.222 223.778 110.278 223.722 110.333 223.667C110.778 223.222 109.722 223.278 109.667 223.333z"/>
<path style="fill:#c7dfeb; stroke:none;" d="M115.667 223.333C115.222 223.778 116.278 223.722 116.333 223.667C116.778 223.222 115.722 223.278 115.667 223.333z"/>
</svg>
