<?xml version="1.0" standalone="no"?>
<!DOCTYPE svg PUBLIC "-//W3C//DTD SVG 20010904//EN"
 "http://www.w3.org/TR/2001/REC-SVG-20010904/DTD/svg10.dtd">
<svg version="1.0" xmlns="http://www.w3.org/2000/svg"
 width="284.000000pt" height="177.000000pt" viewBox="0 0 284.000000 177.000000"
 preserveAspectRatio="xMidYMid meet">
<metadata>
Created by potrace 1.16, written by Peter Selinger 2001-2019
</metadata>
<g transform="translate(0.000000,177.000000) scale(0.100000,-0.100000)"
fill="#000000" stroke="none">
<path d="M284 1234 c-74 -26 -74 -25 -72 -326 l3 -268 26 -26 c34 -34 111 -43
369 -43 173 -1 189 1 230 22 30 14 53 36 67 62 31 55 29 74 -7 88 l-30 11 0
153 c0 95 -4 153 -10 153 -6 0 -10 -63 -11 -167 0 -93 -2 -163 -4 -158 -2 6
-6 23 -10 39 -4 20 -9 26 -16 19 -6 -6 -24 -7 -45 -3 -23 5 -34 4 -34 -4 -1
-6 -7 4 -15 21 -18 41 -69 73 -118 73 -31 0 -46 -7 -71 -32 -37 -37 -38 -37
-86 -16 -19 9 -50 19 -67 23 -38 8 -52 23 -32 36 22 14 37 11 60 -12 18 -18
24 -19 55 -9 29 10 32 14 24 30 -15 28 -60 60 -84 59 -17 -1 -15 -3 8 -9 33
-10 66 -38 66 -55 0 -21 -45 -23 -70 -3 -27 22 -53 23 -70 3 -19 -22 2 -41 65
-60 31 -9 61 -25 70 -37 19 -29 19 -77 0 -105 -19 -27 -86 -47 -126 -38 -34 8
-89 51 -89 70 0 23 43 22 73 -2 33 -27 55 -29 83 -9 28 22 9 44 -56 66 -60 20
-90 49 -90 87 0 37 18 63 53 78 20 9 25 14 14 15 -10 0 -32 -13 -48 -29 -23
-23 -29 -39 -29 -73 l-1 -43 -15 28 c-11 20 -17 71 -21 172 l-6 144 36 36 36
36 233 -7 c168 -5 243 -11 268 -21 l35 -15 -55 -50 c-30 -27 -71 -63 -92 -79
l-36 -29 -42 47 -42 48 -24 -29 c-14 -15 -23 -33 -21 -39 6 -18 112 -156 120
-157 8 0 157 122 251 206 l49 43 -18 41 c-10 22 -21 40 -24 40 -3 0 -17 -9
-30 -19 -24 -18 -25 -18 -57 1 -29 17 -58 20 -216 24 -101 3 -202 6 -224 8
-23 2 -59 -3 -80 -10z m620 -53 l15 -29 -61 -48 c-33 -27 -65 -48 -70 -46 -4
1 -36 -18 -70 -43 -34 -25 -67 -45 -74 -45 -17 0 -114 80 -114 95 0 7 7 19 16
26 15 12 21 8 55 -31 29 -34 42 -43 53 -35 7 6 62 49 121 98 60 48 110 87 111
87 2 0 10 -13 18 -29z m-224 -338 c16 -16 33 -43 36 -60 l7 -33 -72 0 c-62 0
-71 -2 -71 -18 0 -10 5 -23 12 -30 17 -17 57 -15 64 3 7 18 54 20 54 3 0 -28
-43 -58 -85 -58 -78 0 -129 71 -105 145 25 75 104 98 160 48z"/>
<path d="M1590 715 c0 -87 3 -115 13 -113 6 1 22 -1 33 -5 36 -12 72 8 82 46
12 43 5 81 -19 103 -17 16 -31 16 -71 -1 -16 -6 -18 -1 -18 39 0 25 -4 46 -10
46 -6 0 -10 -45 -10 -115z"/>
<path d="M1093 804 c3 -11 18 -61 33 -111 16 -54 33 -93 40 -93 7 0 24 37 39
85 14 47 29 85 33 85 4 0 19 -37 32 -82 16 -54 30 -83 39 -83 10 0 25 36 47
108 23 77 28 107 19 107 -8 0 -22 -33 -35 -82 -12 -46 -25 -86 -29 -91 -4 -4
-20 34 -35 84 -15 50 -32 89 -37 87 -6 -2 -21 -36 -34 -76 -37 -116 -34 -115
-63 -18 -15 49 -33 91 -41 94 -9 3 -11 -2 -8 -14z"/>
<path d="M1770 710 l0 -110 56 0 c48 0 59 4 85 29 24 24 29 38 29 76 0 25 -5
55 -10 66 -16 28 -63 49 -115 49 l-45 0 0 -110z m120 72 c33 -27 39 -99 10
-134 -17 -22 -30 -28 -61 -28 l-39 0 0 90 0 90 34 0 c19 0 44 -8 56 -18z"/>
</g>
</svg>
